<?xml version="1.0" encoding="UTF-8" standalone="no"?>
<!DOCTYPE svg PUBLIC "-//W3C//DTD SVG 1.1//EN"
 "http://www.w3.org/Graphics/SVG/1.1/DTD/svg11.dtd">
<!-- Generated by graphviz version 2.47.0 (20210316.0004)
 -->
<!-- Title: dependencies Pages: 1 -->
<svg width="4328pt" height="284pt"
 viewBox="0.00 0.00 4328.00 284.00" xmlns="http://www.w3.org/2000/svg" xmlns:xlink="http://www.w3.org/1999/xlink">
<g id="graph0" class="graph" transform="scale(1 1) rotate(0) translate(4 280)">
<title>dependencies</title>
<polygon fill="white" stroke="transparent" points="-4,4 -4,-280 4324,-280 4324,4 -4,4"/>
<text text-anchor="start" x="2139.01" y="-42.4" font-family="Times-12" font-weight="bold" font-size="14.00">Legend</text>
<polygon fill="#ffffb3" stroke="transparent" points="1926,-10 1926,-30 1946,-30 1946,-10 1926,-10"/>
<text text-anchor="start" x="1949.63" y="-15.4" font-family="Times-12" font-size="14.00"> &#160;Declarations</text>
<polygon fill="#8dd3c7" stroke="transparent" points="2039,-10 2039,-30 2059,-30 2059,-10 2039,-10"/>
<text text-anchor="start" x="2062.73" y="-15.4" font-family="Times-12" font-size="14.00"> &#160;Module</text>
<polygon fill="#80b1d3" stroke="transparent" points="2125,-10 2125,-30 2145,-30 2145,-10 2125,-10"/>
<text text-anchor="start" x="2148.78" y="-15.4" font-family="Times-12" font-size="14.00"> &#160;Bootstrap</text>
<polygon fill="#fdb462" stroke="transparent" points="2222,-10 2222,-30 2242,-30 2242,-10 2222,-10"/>
<text text-anchor="start" x="2245.67" y="-15.4" font-family="Times-12" font-size="14.00"> &#160;Providers</text>
<polygon fill="#fb8072" stroke="transparent" points="2318,-10 2318,-30 2338,-30 2338,-10 2318,-10"/>
<text text-anchor="start" x="2341.73" y="-15.4" font-family="Times-12" font-size="14.00"> &#160;Exports</text>
<g id="clust1" class="cluster">
<title>cluster_AdminModule</title>
<polygon fill="none" stroke="black" stroke-dasharray="1,5" points="8,-70 8,-195 862,-195 862,-70 8,-70"/>
</g>
<g id="clust2" class="cluster">
<title>cluster_AdminModule_declarations</title>
<polygon fill="none" stroke="black" points="184,-78 184,-130 854,-130 854,-78 184,-78"/>
</g>
<g id="clust7" class="cluster">
<title>cluster_AdminModule_imports</title>
<polygon fill="none" stroke="black" points="16,-78 16,-130 176,-130 176,-78 16,-78"/>
</g>
<g id="clust17" class="cluster">
<title>cluster_AppModule</title>
<polygon fill="none" stroke="black" stroke-dasharray="1,5" points="870,-70 870,-268 1160,-268 1160,-70 870,-70"/>
</g>
<g id="clust18" class="cluster">
<title>cluster_AppModule_declarations</title>
<polygon fill="none" stroke="black" points="1030,-78 1030,-130 1152,-130 1152,-78 1030,-78"/>
</g>
<g id="clust20" class="cluster">
<title>cluster_AppModule_imports</title>
<polygon fill="none" stroke="black" points="878,-78 878,-130 1022,-130 1022,-78 878,-78"/>
</g>
<g id="clust22" class="cluster">
<title>cluster_AppModule_bootstrap</title>
<polygon fill="none" stroke="black" points="958,-208 958,-260 1082,-260 1082,-208 958,-208"/>
</g>
<g id="clust30" class="cluster">
<title>cluster_AuthModule</title>
<polygon fill="none" stroke="black" stroke-dasharray="1,5" points="1168,-70 1168,-195 1756,-195 1756,-70 1168,-70"/>
</g>
<g id="clust31" class="cluster">
<title>cluster_AuthModule_declarations</title>
<polygon fill="none" stroke="black" points="1332,-78 1332,-130 1748,-130 1748,-78 1332,-78"/>
</g>
<g id="clust35" class="cluster">
<title>cluster_AuthModule_imports</title>
<polygon fill="none" stroke="black" points="1176,-78 1176,-130 1324,-130 1324,-78 1176,-78"/>
</g>
<g id="clust45" class="cluster">
<title>cluster_PostModule</title>
<polygon fill="none" stroke="black" stroke-dasharray="1,5" points="1764,-70 1764,-195 2540,-195 2540,-70 1764,-70"/>
</g>
<g id="clust46" class="cluster">
<title>cluster_PostModule_declarations</title>
<polygon fill="none" stroke="black" points="1924,-78 1924,-130 2532,-130 2532,-78 1924,-78"/>
</g>
<g id="clust51" class="cluster">
<title>cluster_PostModule_imports</title>
<polygon fill="none" stroke="black" points="1772,-78 1772,-130 1916,-130 1916,-78 1772,-78"/>
</g>
<g id="clust61" class="cluster">
<title>cluster_PublicModule</title>
<polygon fill="none" stroke="black" stroke-dasharray="1,5" points="2548,-70 2548,-195 3515,-195 3515,-70 2548,-70"/>
</g>
<g id="clust62" class="cluster">
<title>cluster_PublicModule_declarations</title>
<polygon fill="none" stroke="black" points="2720,-78 2720,-130 3507,-130 3507,-78 2720,-78"/>
</g>
<g id="clust68" class="cluster">
<title>cluster_PublicModule_imports</title>
<polygon fill="none" stroke="black" points="2556,-78 2556,-130 2712,-130 2712,-78 2556,-78"/>
</g>
<g id="clust78" class="cluster">
<title>cluster_UserModule</title>
<polygon fill="none" stroke="black" stroke-dasharray="1,5" points="3523,-70 3523,-195 4312,-195 4312,-70 3523,-70"/>
</g>
<g id="clust79" class="cluster">
<title>cluster_UserModule_declarations</title>
<polygon fill="none" stroke="black" points="3687,-78 3687,-130 4304,-130 4304,-78 3687,-78"/>
</g>
<g id="clust84" class="cluster">
<title>cluster_UserModule_imports</title>
<polygon fill="none" stroke="black" points="3531,-78 3531,-130 3679,-130 3679,-78 3531,-78"/>
</g>
<!-- AdminHeaderComponent -->
<g id="node1" class="node">
<title>AdminHeaderComponent</title>
<polygon fill="#ffffb3" stroke="black" points="846.13,-122 685.87,-122 685.87,-86 846.13,-86 846.13,-122"/>
<text text-anchor="middle" x="766" y="-99.8" font-family="Times,serif" font-size="14.00">AdminHeaderComponent</text>
</g>
<!-- AdminModule -->
<g id="node5" class="node">
<title>AdminModule</title>
<polygon fill="#8dd3c7" stroke="black" points="468.44,-187 465.44,-191 444.44,-191 441.44,-187 369.56,-187 369.56,-151 468.44,-151 468.44,-187"/>
<text text-anchor="middle" x="419" y="-164.8" font-family="Times,serif" font-size="14.00">AdminModule</text>
</g>
<!-- AdminHeaderComponent&#45;&gt;AdminModule -->
<g id="edge1" class="edge">
<title>AdminHeaderComponent&#45;&gt;AdminModule</title>
<path fill="none" stroke="black" d="M766,-122.28C766,-143.32 766,-175 766,-175 766,-175 478.35,-175 478.35,-175"/>
<polygon fill="black" stroke="black" points="478.35,-171.5 468.35,-175 478.35,-178.5 478.35,-171.5"/>
</g>
<!-- AdminLayoutComponent -->
<g id="node2" class="node">
<title>AdminLayoutComponent</title>
<polygon fill="#ffffb3" stroke="black" points="667.88,-122 508.12,-122 508.12,-86 667.88,-86 667.88,-122"/>
<text text-anchor="middle" x="588" y="-99.8" font-family="Times,serif" font-size="14.00">AdminLayoutComponent</text>
</g>
<!-- AdminLayoutComponent&#45;&gt;AdminModule -->
<g id="edge2" class="edge">
<title>AdminLayoutComponent&#45;&gt;AdminModule</title>
<path fill="none" stroke="black" d="M588,-122.02C588,-139.37 588,-163 588,-163 588,-163 478.34,-163 478.34,-163"/>
<polygon fill="black" stroke="black" points="478.34,-159.5 468.34,-163 478.34,-166.5 478.34,-159.5"/>
</g>
<!-- DashboardComponent -->
<g id="node3" class="node">
<title>DashboardComponent</title>
<polygon fill="#ffffb3" stroke="black" points="489.97,-122 348.03,-122 348.03,-86 489.97,-86 489.97,-122"/>
<text text-anchor="middle" x="419" y="-99.8" font-family="Times,serif" font-size="14.00">DashboardComponent</text>
</g>
<!-- DashboardComponent&#45;&gt;AdminModule -->
<g id="edge3" class="edge">
<title>DashboardComponent&#45;&gt;AdminModule</title>
<path fill="none" stroke="black" d="M419,-122.11C419,-122.11 419,-140.99 419,-140.99"/>
<polygon fill="black" stroke="black" points="415.5,-140.99 419,-150.99 422.5,-140.99 415.5,-140.99"/>
</g>
<!-- SideMenuComponent -->
<g id="node4" class="node">
<title>SideMenuComponent</title>
<polygon fill="#ffffb3" stroke="black" points="330.38,-122 191.62,-122 191.62,-86 330.38,-86 330.38,-122"/>
<text text-anchor="middle" x="261" y="-99.8" font-family="Times,serif" font-size="14.00">SideMenuComponent</text>
</g>
<!-- SideMenuComponent&#45;&gt;AdminModule -->
<g id="edge4" class="edge">
<title>SideMenuComponent&#45;&gt;AdminModule</title>
<path fill="none" stroke="black" d="M261,-122.02C261,-139.37 261,-163 261,-163 261,-163 359.44,-163 359.44,-163"/>
<polygon fill="black" stroke="black" points="359.44,-166.5 369.44,-163 359.44,-159.5 359.44,-166.5"/>
</g>
<!-- AdminRoutingModule -->
<g id="node6" class="node">
<title>AdminRoutingModule</title>
<polygon fill="#8dd3c7" stroke="black" points="167.56,-122 164.56,-126 143.56,-126 140.56,-122 24.44,-122 24.44,-86 167.56,-86 167.56,-122"/>
<text text-anchor="middle" x="96" y="-99.8" font-family="Times,serif" font-size="14.00">AdminRoutingModule</text>
</g>
<!-- AdminRoutingModule&#45;&gt;AdminModule -->
<g id="edge5" class="edge">
<title>AdminRoutingModule&#45;&gt;AdminModule</title>
<path fill="none" stroke="black" d="M96,-122.28C96,-143.32 96,-175 96,-175 96,-175 359.59,-175 359.59,-175"/>
<polygon fill="black" stroke="black" points="359.59,-178.5 369.59,-175 359.59,-171.5 359.59,-178.5"/>
</g>
<!-- AppComponent -->
<g id="node7" class="node">
<title>AppComponent</title>
<polygon fill="#ffffb3" stroke="black" points="1143.94,-122 1038.06,-122 1038.06,-86 1143.94,-86 1143.94,-122"/>
<text text-anchor="middle" x="1091" y="-99.8" font-family="Times,serif" font-size="14.00">AppComponent</text>
</g>
<!-- AppModule -->
<g id="node8" class="node">
<title>AppModule</title>
<polygon fill="#8dd3c7" stroke="black" points="1061.66,-187 1058.66,-191 1037.66,-191 1034.66,-187 978.34,-187 978.34,-151 1061.66,-151 1061.66,-187"/>
<text text-anchor="middle" x="1020" y="-164.8" font-family="Times,serif" font-size="14.00">AppModule</text>
</g>
<!-- AppComponent&#45;&gt;AppModule -->
<g id="edge6" class="edge">
<title>AppComponent&#45;&gt;AppModule</title>
<path fill="none" stroke="black" d="M1050.05,-122.11C1050.05,-122.11 1050.05,-140.99 1050.05,-140.99"/>
<polygon fill="black" stroke="black" points="1046.55,-140.99 1050.05,-150.99 1053.55,-140.99 1046.55,-140.99"/>
</g>
<!-- AppComponent  -->
<g id="node10" class="node">
<title>AppComponent </title>
<polygon fill="#80b1d3" stroke="black" points="1074.44,-252 965.56,-252 965.56,-216 1074.44,-216 1074.44,-252"/>
<text text-anchor="middle" x="1020" y="-229.8" font-family="Times,serif" font-size="14.00">AppComponent </text>
</g>
<!-- AppModule&#45;&gt;AppComponent  -->
<g id="edge8" class="edge">
<title>AppModule&#45;&gt;AppComponent </title>
<path fill="none" stroke="black" stroke-dasharray="1,5" d="M1020,-187.11C1020,-187.11 1020,-205.99 1020,-205.99"/>
<polygon fill="black" stroke="black" points="1016.5,-205.99 1020,-215.99 1023.5,-205.99 1016.5,-205.99"/>
</g>
<!-- AppRoutingModule -->
<g id="node9" class="node">
<title>AppRoutingModule</title>
<polygon fill="#8dd3c7" stroke="black" points="1014.27,-122 1011.27,-126 990.27,-126 987.27,-122 885.73,-122 885.73,-86 1014.27,-86 1014.27,-122"/>
<text text-anchor="middle" x="950" y="-99.8" font-family="Times,serif" font-size="14.00">AppRoutingModule</text>
</g>
<!-- AppRoutingModule&#45;&gt;AppModule -->
<g id="edge7" class="edge">
<title>AppRoutingModule&#45;&gt;AppModule</title>
<path fill="none" stroke="black" d="M996.28,-122.11C996.28,-122.11 996.28,-140.99 996.28,-140.99"/>
<polygon fill="black" stroke="black" points="992.78,-140.99 996.28,-150.99 999.78,-140.99 992.78,-140.99"/>
</g>
<!-- LoginComponent -->
<g id="node11" class="node">
<title>LoginComponent</title>
<polygon fill="#ffffb3" stroke="black" points="1740.28,-122 1625.72,-122 1625.72,-86 1740.28,-86 1740.28,-122"/>
<text text-anchor="middle" x="1683" y="-99.8" font-family="Times,serif" font-size="14.00">LoginComponent</text>
</g>
<!-- AuthModule -->
<g id="node14" class="node">
<title>AuthModule</title>
<polygon fill="#8dd3c7" stroke="black" points="1518.55,-187 1515.55,-191 1494.55,-191 1491.55,-187 1431.45,-187 1431.45,-151 1518.55,-151 1518.55,-187"/>
<text text-anchor="middle" x="1475" y="-164.8" font-family="Times,serif" font-size="14.00">AuthModule</text>
</g>
<!-- LoginComponent&#45;&gt;AuthModule -->
<g id="edge9" class="edge">
<title>LoginComponent&#45;&gt;AuthModule</title>
<path fill="none" stroke="black" d="M1683,-122.03C1683,-138.4 1683,-160 1683,-160 1683,-160 1528.6,-160 1528.6,-160"/>
<polygon fill="black" stroke="black" points="1528.6,-156.5 1518.6,-160 1528.6,-163.5 1528.6,-156.5"/>
</g>
<!-- LogoutComponent -->
<g id="node12" class="node">
<title>LogoutComponent</title>
<polygon fill="#ffffb3" stroke="black" points="1607.78,-122 1486.22,-122 1486.22,-86 1607.78,-86 1607.78,-122"/>
<text text-anchor="middle" x="1547" y="-99.8" font-family="Times,serif" font-size="14.00">LogoutComponent</text>
</g>
<!-- LogoutComponent&#45;&gt;AuthModule -->
<g id="edge10" class="edge">
<title>LogoutComponent&#45;&gt;AuthModule</title>
<path fill="none" stroke="black" d="M1502.44,-122.11C1502.44,-122.11 1502.44,-140.99 1502.44,-140.99"/>
<polygon fill="black" stroke="black" points="1498.94,-140.99 1502.44,-150.99 1505.94,-140.99 1498.94,-140.99"/>
</g>
<!-- RegisterComponent -->
<g id="node13" class="node">
<title>RegisterComponent</title>
<polygon fill="#ffffb3" stroke="black" points="1467.98,-122 1340.02,-122 1340.02,-86 1467.98,-86 1467.98,-122"/>
<text text-anchor="middle" x="1404" y="-99.8" font-family="Times,serif" font-size="14.00">RegisterComponent</text>
</g>
<!-- RegisterComponent&#45;&gt;AuthModule -->
<g id="edge11" class="edge">
<title>RegisterComponent&#45;&gt;AuthModule</title>
<path fill="none" stroke="black" d="M1449.61,-122.11C1449.61,-122.11 1449.61,-140.99 1449.61,-140.99"/>
<polygon fill="black" stroke="black" points="1446.11,-140.99 1449.61,-150.99 1453.11,-140.99 1446.11,-140.99"/>
</g>
<!-- AuthRoutingModule -->
<g id="node15" class="node">
<title>AuthRoutingModule</title>
<polygon fill="#8dd3c7" stroke="black" points="1316.17,-122 1313.17,-126 1292.17,-126 1289.17,-122 1183.83,-122 1183.83,-86 1316.17,-86 1316.17,-122"/>
<text text-anchor="middle" x="1250" y="-99.8" font-family="Times,serif" font-size="14.00">AuthRoutingModule</text>
</g>
<!-- AuthRoutingModule&#45;&gt;AuthModule -->
<g id="edge12" class="edge">
<title>AuthRoutingModule&#45;&gt;AuthModule</title>
<path fill="none" stroke="black" d="M1250,-122.11C1250,-141.34 1250,-169 1250,-169 1250,-169 1421.35,-169 1421.35,-169"/>
<polygon fill="black" stroke="black" points="1421.35,-172.5 1431.35,-169 1421.35,-165.5 1421.35,-172.5"/>
</g>
<!-- PostAddComponent -->
<g id="node16" class="node">
<title>PostAddComponent</title>
<polygon fill="#ffffb3" stroke="black" points="2523.56,-122 2394.44,-122 2394.44,-86 2523.56,-86 2523.56,-122"/>
<text text-anchor="middle" x="2459" y="-99.8" font-family="Times,serif" font-size="14.00">PostAddComponent</text>
</g>
<!-- PostModule -->
<g id="node20" class="node">
<title>PostModule</title>
<polygon fill="#8dd3c7" stroke="black" points="2193.67,-187 2190.67,-191 2169.67,-191 2166.67,-187 2110.33,-187 2110.33,-151 2193.67,-151 2193.67,-187"/>
<text text-anchor="middle" x="2152" y="-164.8" font-family="Times,serif" font-size="14.00">PostModule</text>
</g>
<!-- PostAddComponent&#45;&gt;PostModule -->
<g id="edge13" class="edge">
<title>PostAddComponent&#45;&gt;PostModule</title>
<path fill="none" stroke="black" d="M2459,-122.01C2459,-144.49 2459,-180 2459,-180 2459,-180 2203.72,-180 2203.72,-180"/>
<polygon fill="black" stroke="black" points="2203.72,-176.5 2193.72,-180 2203.72,-183.5 2203.72,-176.5"/>
</g>
<!-- PostDeleteComponent -->
<g id="node17" class="node">
<title>PostDeleteComponent</title>
<polygon fill="#ffffb3" stroke="black" points="2375.98,-122 2234.02,-122 2234.02,-86 2375.98,-86 2375.98,-122"/>
<text text-anchor="middle" x="2305" y="-99.8" font-family="Times,serif" font-size="14.00">PostDeleteComponent</text>
</g>
<!-- PostDeleteComponent&#45;&gt;PostModule -->
<g id="edge14" class="edge">
<title>PostDeleteComponent&#45;&gt;PostModule</title>
<path fill="none" stroke="black" d="M2305,-122.13C2305,-142.57 2305,-173 2305,-173 2305,-173 2203.81,-173 2203.81,-173"/>
<polygon fill="black" stroke="black" points="2203.81,-169.5 2193.81,-173 2203.81,-176.5 2203.81,-169.5"/>
</g>
<!-- PostEditComponent -->
<g id="node18" class="node">
<title>PostEditComponent</title>
<polygon fill="#ffffb3" stroke="black" points="2216.28,-122 2087.72,-122 2087.72,-86 2216.28,-86 2216.28,-122"/>
<text text-anchor="middle" x="2152" y="-99.8" font-family="Times,serif" font-size="14.00">PostEditComponent</text>
</g>
<!-- PostEditComponent&#45;&gt;PostModule -->
<g id="edge15" class="edge">
<title>PostEditComponent&#45;&gt;PostModule</title>
<path fill="none" stroke="black" d="M2152,-122.11C2152,-122.11 2152,-140.99 2152,-140.99"/>
<polygon fill="black" stroke="black" points="2148.5,-140.99 2152,-150.99 2155.5,-140.99 2148.5,-140.99"/>
</g>
<!-- PostIndexComponent -->
<g id="node19" class="node">
<title>PostIndexComponent</title>
<polygon fill="#ffffb3" stroke="black" points="2069.83,-122 1932.17,-122 1932.17,-86 2069.83,-86 2069.83,-122"/>
<text text-anchor="middle" x="2001" y="-99.8" font-family="Times,serif" font-size="14.00">PostIndexComponent</text>
</g>
<!-- PostIndexComponent&#45;&gt;PostModule -->
<g id="edge16" class="edge">
<title>PostIndexComponent&#45;&gt;PostModule</title>
<path fill="none" stroke="black" d="M2001,-122.11C2001,-141.34 2001,-169 2001,-169 2001,-169 2099.94,-169 2099.94,-169"/>
<polygon fill="black" stroke="black" points="2099.94,-172.5 2109.94,-169 2099.94,-165.5 2099.94,-172.5"/>
</g>
<!-- PostRoutingModule -->
<g id="node21" class="node">
<title>PostRoutingModule</title>
<polygon fill="#8dd3c7" stroke="black" points="1908.29,-122 1905.29,-126 1884.29,-126 1881.29,-122 1779.71,-122 1779.71,-86 1908.29,-86 1908.29,-122"/>
<text text-anchor="middle" x="1844" y="-99.8" font-family="Times,serif" font-size="14.00">PostRoutingModule</text>
</g>
<!-- PostRoutingModule&#45;&gt;PostModule -->
<g id="edge17" class="edge">
<title>PostRoutingModule&#45;&gt;PostModule</title>
<path fill="none" stroke="black" d="M1844,-122.29C1844,-144.21 1844,-178 1844,-178 1844,-178 2100.14,-178 2100.14,-178"/>
<polygon fill="black" stroke="black" points="2100.14,-181.5 2110.14,-178 2100.14,-174.5 2100.14,-181.5"/>
</g>
<!-- HomeComponent -->
<g id="node22" class="node">
<title>HomeComponent</title>
<polygon fill="#ffffb3" stroke="black" points="3498.55,-122 3383.45,-122 3383.45,-86 3498.55,-86 3498.55,-122"/>
<text text-anchor="middle" x="3441" y="-99.8" font-family="Times,serif" font-size="14.00">HomeComponent</text>
</g>
<!-- PublicModule -->
<g id="node27" class="node">
<title>PublicModule</title>
<polygon fill="#8dd3c7" stroke="black" points="3114.83,-187 3111.83,-191 3090.83,-191 3087.83,-187 3019.17,-187 3019.17,-151 3114.83,-151 3114.83,-187"/>
<text text-anchor="middle" x="3067" y="-164.8" font-family="Times,serif" font-size="14.00">PublicModule</text>
</g>
<!-- HomeComponent&#45;&gt;PublicModule -->
<g id="edge18" class="edge">
<title>HomeComponent&#45;&gt;PublicModule</title>
<path fill="none" stroke="black" d="M3441,-122.27C3441,-140.56 3441,-166 3441,-166 3441,-166 3124.75,-166 3124.75,-166"/>
<polygon fill="black" stroke="black" points="3124.75,-162.5 3114.75,-166 3124.75,-169.5 3124.75,-162.5"/>
</g>
<!-- ProfileComponent -->
<g id="node23" class="node">
<title>ProfileComponent</title>
<polygon fill="#ffffb3" stroke="black" points="3365.93,-122 3246.07,-122 3246.07,-86 3365.93,-86 3365.93,-122"/>
<text text-anchor="middle" x="3306" y="-99.8" font-family="Times,serif" font-size="14.00">ProfileComponent</text>
</g>
<!-- ProfileComponent&#45;&gt;PublicModule -->
<g id="edge19" class="edge">
<title>ProfileComponent&#45;&gt;PublicModule</title>
<path fill="none" stroke="black" d="M3306,-122.01C3306,-138.05 3306,-159 3306,-159 3306,-159 3124.79,-159 3124.79,-159"/>
<polygon fill="black" stroke="black" points="3124.79,-155.5 3114.79,-159 3124.79,-162.5 3124.79,-155.5"/>
</g>
<!-- ProfileOtherComponent -->
<g id="node24" class="node">
<title>ProfileOtherComponent</title>
<polygon fill="#ffffb3" stroke="black" points="3228.8,-122 3077.2,-122 3077.2,-86 3228.8,-86 3228.8,-122"/>
<text text-anchor="middle" x="3153" y="-99.8" font-family="Times,serif" font-size="14.00">ProfileOtherComponent</text>
</g>
<!-- ProfileOtherComponent&#45;&gt;PublicModule -->
<g id="edge20" class="edge">
<title>ProfileOtherComponent&#45;&gt;PublicModule</title>
<path fill="none" stroke="black" d="M3096.01,-122.11C3096.01,-122.11 3096.01,-140.99 3096.01,-140.99"/>
<polygon fill="black" stroke="black" points="3092.51,-140.99 3096.01,-150.99 3099.51,-140.99 3092.51,-140.99"/>
</g>
<!-- PublicHeaderComponent -->
<g id="node25" class="node">
<title>PublicHeaderComponent</title>
<polygon fill="#ffffb3" stroke="black" points="3059.52,-122 2902.48,-122 2902.48,-86 3059.52,-86 3059.52,-122"/>
<text text-anchor="middle" x="2981" y="-99.8" font-family="Times,serif" font-size="14.00">PublicHeaderComponent</text>
</g>
<!-- PublicHeaderComponent&#45;&gt;PublicModule -->
<g id="edge21" class="edge">
<title>PublicHeaderComponent&#45;&gt;PublicModule</title>
<path fill="none" stroke="black" d="M3039.55,-122.11C3039.55,-122.11 3039.55,-140.99 3039.55,-140.99"/>
<polygon fill="black" stroke="black" points="3036.05,-140.99 3039.55,-150.99 3043.05,-140.99 3036.05,-140.99"/>
</g>
<!-- PublicLayoutComponent -->
<g id="node26" class="node">
<title>PublicLayoutComponent</title>
<polygon fill="#ffffb3" stroke="black" points="2884.27,-122 2727.73,-122 2727.73,-86 2884.27,-86 2884.27,-122"/>
<text text-anchor="middle" x="2806" y="-99.8" font-family="Times,serif" font-size="14.00">PublicLayoutComponent</text>
</g>
<!-- PublicLayoutComponent&#45;&gt;PublicModule -->
<g id="edge22" class="edge">
<title>PublicLayoutComponent&#45;&gt;PublicModule</title>
<path fill="none" stroke="black" d="M2806,-122.01C2806,-138.05 2806,-159 2806,-159 2806,-159 3009.13,-159 3009.13,-159"/>
<polygon fill="black" stroke="black" points="3009.13,-162.5 3019.13,-159 3009.13,-155.5 3009.13,-162.5"/>
</g>
<!-- PublicRoutingModule -->
<g id="node28" class="node">
<title>PublicRoutingModule</title>
<polygon fill="#8dd3c7" stroke="black" points="2704.45,-122 2701.45,-126 2680.45,-126 2677.45,-122 2563.55,-122 2563.55,-86 2704.45,-86 2704.45,-122"/>
<text text-anchor="middle" x="2634" y="-99.8" font-family="Times,serif" font-size="14.00">PublicRoutingModule</text>
</g>
<!-- PublicRoutingModule&#45;&gt;PublicModule -->
<g id="edge23" class="edge">
<title>PublicRoutingModule&#45;&gt;PublicModule</title>
<path fill="none" stroke="black" d="M2634,-122.27C2634,-140.56 2634,-166 2634,-166 2634,-166 3009.01,-166 3009.01,-166"/>
<polygon fill="black" stroke="black" points="3009.01,-169.5 3019.01,-166 3009.01,-162.5 3009.01,-169.5"/>
</g>
<!-- UserAddComponent -->
<g id="node29" class="node">
<title>UserAddComponent</title>
<polygon fill="#ffffb3" stroke="black" points="4295.87,-122 4164.13,-122 4164.13,-86 4295.87,-86 4295.87,-122"/>
<text text-anchor="middle" x="4230" y="-99.8" font-family="Times,serif" font-size="14.00">UserAddComponent</text>
</g>
<!-- UserModule -->
<g id="node33" class="node">
<title>UserModule</title>
<polygon fill="#8dd3c7" stroke="black" points="3960.98,-187 3957.98,-191 3936.98,-191 3933.98,-187 3875.02,-187 3875.02,-151 3960.98,-151 3960.98,-187"/>
<text text-anchor="middle" x="3918" y="-164.8" font-family="Times,serif" font-size="14.00">UserModule</text>
</g>
<!-- UserAddComponent&#45;&gt;UserModule -->
<g id="edge24" class="edge">
<title>UserAddComponent&#45;&gt;UserModule</title>
<path fill="none" stroke="black" d="M4230,-122.28C4230,-143.32 4230,-175 4230,-175 4230,-175 3971.05,-175 3971.05,-175"/>
<polygon fill="black" stroke="black" points="3971.05,-171.5 3961.05,-175 3971.05,-178.5 3971.05,-171.5"/>
</g>
<!-- UserDeleteComponent -->
<g id="node30" class="node">
<title>UserDeleteComponent</title>
<polygon fill="#ffffb3" stroke="black" points="4146.29,-122 4001.71,-122 4001.71,-86 4146.29,-86 4146.29,-122"/>
<text text-anchor="middle" x="4074" y="-99.8" font-family="Times,serif" font-size="14.00">UserDeleteComponent</text>
</g>
<!-- UserDeleteComponent&#45;&gt;UserModule -->
<g id="edge25" class="edge">
<title>UserDeleteComponent&#45;&gt;UserModule</title>
<path fill="none" stroke="black" d="M4074,-122.02C4074,-139.37 4074,-163 4074,-163 4074,-163 3971.04,-163 3971.04,-163"/>
<polygon fill="black" stroke="black" points="3971.04,-159.5 3961.04,-163 3971.04,-166.5 3971.04,-159.5"/>
</g>
<!-- UserEditComponent -->
<g id="node31" class="node">
<title>UserEditComponent</title>
<polygon fill="#ffffb3" stroke="black" points="3983.59,-122 3852.41,-122 3852.41,-86 3983.59,-86 3983.59,-122"/>
<text text-anchor="middle" x="3918" y="-99.8" font-family="Times,serif" font-size="14.00">UserEditComponent</text>
</g>
<!-- UserEditComponent&#45;&gt;UserModule -->
<g id="edge26" class="edge">
<title>UserEditComponent&#45;&gt;UserModule</title>
<path fill="none" stroke="black" d="M3918,-122.11C3918,-122.11 3918,-140.99 3918,-140.99"/>
<polygon fill="black" stroke="black" points="3914.5,-140.99 3918,-150.99 3921.5,-140.99 3914.5,-140.99"/>
</g>
<!-- UserIndexComponent -->
<g id="node32" class="node">
<title>UserIndexComponent</title>
<polygon fill="#ffffb3" stroke="black" points="3834.63,-122 3695.37,-122 3695.37,-86 3834.63,-86 3834.63,-122"/>
<text text-anchor="middle" x="3765" y="-99.8" font-family="Times,serif" font-size="14.00">UserIndexComponent</text>
</g>
<!-- UserIndexComponent&#45;&gt;UserModule -->
<g id="edge27" class="edge">
<title>UserIndexComponent&#45;&gt;UserModule</title>
<path fill="none" stroke="black" d="M3765,-122.13C3765,-142.57 3765,-173 3765,-173 3765,-173 3864.97,-173 3864.97,-173"/>
<polygon fill="black" stroke="black" points="3864.97,-176.5 3874.97,-173 3864.97,-169.5 3864.97,-176.5"/>
</g>
<!-- UserRoutingModule -->
<g id="node34" class="node">
<title>UserRoutingModule</title>
<polygon fill="#8dd3c7" stroke="black" points="3670.59,-122 3667.59,-126 3646.59,-126 3643.59,-122 3539.41,-122 3539.41,-86 3670.59,-86 3670.59,-122"/>
<text text-anchor="middle" x="3605" y="-99.8" font-family="Times,serif" font-size="14.00">UserRoutingModule</text>
</g>
<!-- UserRoutingModule&#45;&gt;UserModule -->
<g id="edge28" class="edge">
<title>UserRoutingModule&#45;&gt;UserModule</title>
<path fill="none" stroke="black" d="M3605,-122.01C3605,-144.49 3605,-180 3605,-180 3605,-180 3864.81,-180 3864.81,-180"/>
<polygon fill="black" stroke="black" points="3864.81,-183.5 3874.81,-180 3864.81,-176.5 3864.81,-183.5"/>
</g>
</g>
</svg>
