<?xml version="1.0" encoding="UTF-8" standalone="no"?>
<!DOCTYPE svg PUBLIC "-//W3C//DTD SVG 1.1//EN"
 "http://www.w3.org/Graphics/SVG/1.1/DTD/svg11.dtd">
<!-- Generated by graphviz version 2.47.0 (20210316.0004)
 -->
<!-- Title: dependencies Pages: 1 -->
<svg width="991pt" height="211pt"
 viewBox="0.00 0.00 991.00 211.00" xmlns="http://www.w3.org/2000/svg" xmlns:xlink="http://www.w3.org/1999/xlink">
<g id="graph0" class="graph" transform="scale(1 1) rotate(0) translate(4 207)">
<title>dependencies</title>
<polygon fill="white" stroke="transparent" points="-4,4 -4,-207 987,-207 987,4 -4,4"/>
<text text-anchor="start" x="470.51" y="-42.4" font-family="Times-12" font-weight="bold" font-size="14.00">Legend</text>
<polygon fill="#ffffb3" stroke="transparent" points="257.5,-10 257.5,-30 277.5,-30 277.5,-10 257.5,-10"/>
<text text-anchor="start" x="281.13" y="-15.4" font-family="Times-12" font-size="14.00"> &#160;Declarations</text>
<polygon fill="#8dd3c7" stroke="transparent" points="370.5,-10 370.5,-30 390.5,-30 390.5,-10 370.5,-10"/>
<text text-anchor="start" x="394.23" y="-15.4" font-family="Times-12" font-size="14.00"> &#160;Module</text>
<polygon fill="#80b1d3" stroke="transparent" points="456.5,-10 456.5,-30 476.5,-30 476.5,-10 456.5,-10"/>
<text text-anchor="start" x="480.28" y="-15.4" font-family="Times-12" font-size="14.00"> &#160;Bootstrap</text>
<polygon fill="#fdb462" stroke="transparent" points="553.5,-10 553.5,-30 573.5,-30 573.5,-10 553.5,-10"/>
<text text-anchor="start" x="577.17" y="-15.4" font-family="Times-12" font-size="14.00"> &#160;Providers</text>
<polygon fill="#fb8072" stroke="transparent" points="649.5,-10 649.5,-30 669.5,-30 669.5,-10 649.5,-10"/>
<text text-anchor="start" x="673.23" y="-15.4" font-family="Times-12" font-size="14.00"> &#160;Exports</text>
<g id="clust1" class="cluster">
<title>cluster_PublicModule</title>
<polygon fill="none" stroke="black" stroke-dasharray="1,5" points="8,-70 8,-195 975,-195 975,-70 8,-70"/>
</g>
<g id="clust8" class="cluster">
<title>cluster_PublicModule_imports</title>
<polygon fill="none" stroke="black" points="811,-78 811,-130 967,-130 967,-78 811,-78"/>
</g>
<g id="clust2" class="cluster">
<title>cluster_PublicModule_declarations</title>
<polygon fill="none" stroke="black" points="16,-78 16,-130 803,-130 803,-78 16,-78"/>
</g>
<!-- HomeComponent -->
<g id="node1" class="node">
<title>HomeComponent</title>
<polygon fill="#ffffb3" stroke="black" points="794.55,-122 679.45,-122 679.45,-86 794.55,-86 794.55,-122"/>
<text text-anchor="middle" x="737" y="-99.8" font-family="Times,serif" font-size="14.00">HomeComponent</text>
</g>
<!-- PublicModule -->
<g id="node6" class="node">
<title>PublicModule</title>
<polygon fill="#8dd3c7" stroke="black" points="572.83,-187 569.83,-191 548.83,-191 545.83,-187 477.17,-187 477.17,-151 572.83,-151 572.83,-187"/>
<text text-anchor="middle" x="525" y="-164.8" font-family="Times,serif" font-size="14.00">PublicModule</text>
</g>
<!-- HomeComponent&#45;&gt;PublicModule -->
<g id="edge1" class="edge">
<title>HomeComponent&#45;&gt;PublicModule</title>
<path fill="none" stroke="black" d="M737,-122.02C737,-139.37 737,-163 737,-163 737,-163 582.84,-163 582.84,-163"/>
<polygon fill="black" stroke="black" points="582.84,-159.5 572.84,-163 582.84,-166.5 582.84,-159.5"/>
</g>
<!-- ProfileComponent -->
<g id="node2" class="node">
<title>ProfileComponent</title>
<polygon fill="#ffffb3" stroke="black" points="661.93,-122 542.07,-122 542.07,-86 661.93,-86 661.93,-122"/>
<text text-anchor="middle" x="602" y="-99.8" font-family="Times,serif" font-size="14.00">ProfileComponent</text>
</g>
<!-- ProfileComponent&#45;&gt;PublicModule -->
<g id="edge2" class="edge">
<title>ProfileComponent&#45;&gt;PublicModule</title>
<path fill="none" stroke="black" d="M557.47,-122.11C557.47,-122.11 557.47,-140.99 557.47,-140.99"/>
<polygon fill="black" stroke="black" points="553.97,-140.99 557.47,-150.99 560.97,-140.99 553.97,-140.99"/>
</g>
<!-- ProfileOtherComponent -->
<g id="node3" class="node">
<title>ProfileOtherComponent</title>
<polygon fill="#ffffb3" stroke="black" points="524.8,-122 373.2,-122 373.2,-86 524.8,-86 524.8,-122"/>
<text text-anchor="middle" x="449" y="-99.8" font-family="Times,serif" font-size="14.00">ProfileOtherComponent</text>
</g>
<!-- ProfileOtherComponent&#45;&gt;PublicModule -->
<g id="edge3" class="edge">
<title>ProfileOtherComponent&#45;&gt;PublicModule</title>
<path fill="none" stroke="black" d="M500.99,-122.11C500.99,-122.11 500.99,-140.99 500.99,-140.99"/>
<polygon fill="black" stroke="black" points="497.49,-140.99 500.99,-150.99 504.49,-140.99 497.49,-140.99"/>
</g>
<!-- PublicHeaderComponent -->
<g id="node4" class="node">
<title>PublicHeaderComponent</title>
<polygon fill="#ffffb3" stroke="black" points="355.52,-122 198.48,-122 198.48,-86 355.52,-86 355.52,-122"/>
<text text-anchor="middle" x="277" y="-99.8" font-family="Times,serif" font-size="14.00">PublicHeaderComponent</text>
</g>
<!-- PublicHeaderComponent&#45;&gt;PublicModule -->
<g id="edge4" class="edge">
<title>PublicHeaderComponent&#45;&gt;PublicModule</title>
<path fill="none" stroke="black" d="M277,-122.02C277,-139.37 277,-163 277,-163 277,-163 467.18,-163 467.18,-163"/>
<polygon fill="black" stroke="black" points="467.18,-166.5 477.18,-163 467.18,-159.5 467.18,-166.5"/>
</g>
<!-- PublicLayoutComponent -->
<g id="node5" class="node">
<title>PublicLayoutComponent</title>
<polygon fill="#ffffb3" stroke="black" points="180.27,-122 23.73,-122 23.73,-86 180.27,-86 180.27,-122"/>
<text text-anchor="middle" x="102" y="-99.8" font-family="Times,serif" font-size="14.00">PublicLayoutComponent</text>
</g>
<!-- PublicLayoutComponent&#45;&gt;PublicModule -->
<g id="edge5" class="edge">
<title>PublicLayoutComponent&#45;&gt;PublicModule</title>
<path fill="none" stroke="black" d="M102,-122.28C102,-143.32 102,-175 102,-175 102,-175 467.3,-175 467.3,-175"/>
<polygon fill="black" stroke="black" points="467.3,-178.5 477.3,-175 467.3,-171.5 467.3,-178.5"/>
</g>
<!-- PublicRoutingModule -->
<g id="node7" class="node">
<title>PublicRoutingModule</title>
<polygon fill="#8dd3c7" stroke="black" points="959.45,-122 956.45,-126 935.45,-126 932.45,-122 818.55,-122 818.55,-86 959.45,-86 959.45,-122"/>
<text text-anchor="middle" x="889" y="-99.8" font-family="Times,serif" font-size="14.00">PublicRoutingModule</text>
</g>
<!-- PublicRoutingModule&#45;&gt;PublicModule -->
<g id="edge6" class="edge">
<title>PublicRoutingModule&#45;&gt;PublicModule</title>
<path fill="none" stroke="black" d="M889,-122.28C889,-143.32 889,-175 889,-175 889,-175 582.96,-175 582.96,-175"/>
<polygon fill="black" stroke="black" points="582.96,-171.5 572.96,-175 582.96,-178.5 582.96,-171.5"/>
</g>
</g>
</svg>
