<?xml version="1.0" encoding="UTF-8" standalone="no"?>
<!DOCTYPE svg PUBLIC "-//W3C//DTD SVG 1.1//EN"
 "http://www.w3.org/Graphics/SVG/1.1/DTD/svg11.dtd">
<!-- Generated by graphviz version 2.47.0 (20210316.0004)
 -->
<!-- Title: dependencies Pages: 1 -->
<svg width="813pt" height="211pt"
 viewBox="0.00 0.00 813.00 211.00" xmlns="http://www.w3.org/2000/svg" xmlns:xlink="http://www.w3.org/1999/xlink">
<g id="graph0" class="graph" transform="scale(1 1) rotate(0) translate(4 207)">
<title>dependencies</title>
<polygon fill="white" stroke="transparent" points="-4,4 -4,-207 809,-207 809,4 -4,4"/>
<text text-anchor="start" x="381.51" y="-42.4" font-family="Times-12" font-weight="bold" font-size="14.00">Legend</text>
<polygon fill="#ffffb3" stroke="transparent" points="168.5,-10 168.5,-30 188.5,-30 188.5,-10 168.5,-10"/>
<text text-anchor="start" x="192.13" y="-15.4" font-family="Times-12" font-size="14.00"> &#160;Declarations</text>
<polygon fill="#8dd3c7" stroke="transparent" points="281.5,-10 281.5,-30 301.5,-30 301.5,-10 281.5,-10"/>
<text text-anchor="start" x="305.23" y="-15.4" font-family="Times-12" font-size="14.00"> &#160;Module</text>
<polygon fill="#80b1d3" stroke="transparent" points="367.5,-10 367.5,-30 387.5,-30 387.5,-10 367.5,-10"/>
<text text-anchor="start" x="391.28" y="-15.4" font-family="Times-12" font-size="14.00"> &#160;Bootstrap</text>
<polygon fill="#fdb462" stroke="transparent" points="464.5,-10 464.5,-30 484.5,-30 484.5,-10 464.5,-10"/>
<text text-anchor="start" x="488.17" y="-15.4" font-family="Times-12" font-size="14.00"> &#160;Providers</text>
<polygon fill="#fb8072" stroke="transparent" points="560.5,-10 560.5,-30 580.5,-30 580.5,-10 560.5,-10"/>
<text text-anchor="start" x="584.23" y="-15.4" font-family="Times-12" font-size="14.00"> &#160;Exports</text>
<g id="clust1" class="cluster">
<title>cluster_UserModule</title>
<polygon fill="none" stroke="black" stroke-dasharray="1,5" points="8,-70 8,-195 797,-195 797,-70 8,-70"/>
</g>
<g id="clust2" class="cluster">
<title>cluster_UserModule_declarations</title>
<polygon fill="none" stroke="black" points="172,-78 172,-130 789,-130 789,-78 172,-78"/>
</g>
<g id="clust7" class="cluster">
<title>cluster_UserModule_imports</title>
<polygon fill="none" stroke="black" points="16,-78 16,-130 164,-130 164,-78 16,-78"/>
</g>
<!-- UserAddComponent -->
<g id="node1" class="node">
<title>UserAddComponent</title>
<polygon fill="#ffffb3" stroke="black" points="780.87,-122 649.13,-122 649.13,-86 780.87,-86 780.87,-122"/>
<text text-anchor="middle" x="715" y="-99.8" font-family="Times,serif" font-size="14.00">UserAddComponent</text>
</g>
<!-- UserModule -->
<g id="node5" class="node">
<title>UserModule</title>
<polygon fill="#8dd3c7" stroke="black" points="445.98,-187 442.98,-191 421.98,-191 418.98,-187 360.02,-187 360.02,-151 445.98,-151 445.98,-187"/>
<text text-anchor="middle" x="403" y="-164.8" font-family="Times,serif" font-size="14.00">UserModule</text>
</g>
<!-- UserAddComponent&#45;&gt;UserModule -->
<g id="edge1" class="edge">
<title>UserAddComponent&#45;&gt;UserModule</title>
<path fill="none" stroke="black" d="M715,-122.28C715,-143.32 715,-175 715,-175 715,-175 456.05,-175 456.05,-175"/>
<polygon fill="black" stroke="black" points="456.05,-171.5 446.05,-175 456.05,-178.5 456.05,-171.5"/>
</g>
<!-- UserDeleteComponent -->
<g id="node2" class="node">
<title>UserDeleteComponent</title>
<polygon fill="#ffffb3" stroke="black" points="631.29,-122 486.71,-122 486.71,-86 631.29,-86 631.29,-122"/>
<text text-anchor="middle" x="559" y="-99.8" font-family="Times,serif" font-size="14.00">UserDeleteComponent</text>
</g>
<!-- UserDeleteComponent&#45;&gt;UserModule -->
<g id="edge2" class="edge">
<title>UserDeleteComponent&#45;&gt;UserModule</title>
<path fill="none" stroke="black" d="M559,-122.02C559,-139.37 559,-163 559,-163 559,-163 456.04,-163 456.04,-163"/>
<polygon fill="black" stroke="black" points="456.04,-159.5 446.04,-163 456.04,-166.5 456.04,-159.5"/>
</g>
<!-- UserEditComponent -->
<g id="node3" class="node">
<title>UserEditComponent</title>
<polygon fill="#ffffb3" stroke="black" points="468.59,-122 337.41,-122 337.41,-86 468.59,-86 468.59,-122"/>
<text text-anchor="middle" x="403" y="-99.8" font-family="Times,serif" font-size="14.00">UserEditComponent</text>
</g>
<!-- UserEditComponent&#45;&gt;UserModule -->
<g id="edge3" class="edge">
<title>UserEditComponent&#45;&gt;UserModule</title>
<path fill="none" stroke="black" d="M403,-122.11C403,-122.11 403,-140.99 403,-140.99"/>
<polygon fill="black" stroke="black" points="399.5,-140.99 403,-150.99 406.5,-140.99 399.5,-140.99"/>
</g>
<!-- UserIndexComponent -->
<g id="node4" class="node">
<title>UserIndexComponent</title>
<polygon fill="#ffffb3" stroke="black" points="319.63,-122 180.37,-122 180.37,-86 319.63,-86 319.63,-122"/>
<text text-anchor="middle" x="250" y="-99.8" font-family="Times,serif" font-size="14.00">UserIndexComponent</text>
</g>
<!-- UserIndexComponent&#45;&gt;UserModule -->
<g id="edge4" class="edge">
<title>UserIndexComponent&#45;&gt;UserModule</title>
<path fill="none" stroke="black" d="M250,-122.02C250,-139.37 250,-163 250,-163 250,-163 349.97,-163 349.97,-163"/>
<polygon fill="black" stroke="black" points="349.97,-166.5 359.97,-163 349.97,-159.5 349.97,-166.5"/>
</g>
<!-- UserRoutingModule -->
<g id="node6" class="node">
<title>UserRoutingModule</title>
<polygon fill="#8dd3c7" stroke="black" points="155.59,-122 152.59,-126 131.59,-126 128.59,-122 24.41,-122 24.41,-86 155.59,-86 155.59,-122"/>
<text text-anchor="middle" x="90" y="-99.8" font-family="Times,serif" font-size="14.00">UserRoutingModule</text>
</g>
<!-- UserRoutingModule&#45;&gt;UserModule -->
<g id="edge5" class="edge">
<title>UserRoutingModule&#45;&gt;UserModule</title>
<path fill="none" stroke="black" d="M90,-122.28C90,-143.32 90,-175 90,-175 90,-175 349.81,-175 349.81,-175"/>
<polygon fill="black" stroke="black" points="349.81,-178.5 359.81,-175 349.81,-171.5 349.81,-178.5"/>
</g>
</g>
</svg>
