<?xml version="1.0" encoding="UTF-8" standalone="no"?>
<!DOCTYPE svg PUBLIC "-//W3C//DTD SVG 1.1//EN"
 "http://www.w3.org/Graphics/SVG/1.1/DTD/svg11.dtd">
<!-- Generated by graphviz version 2.47.0 (20210316.0004)
 -->
<!-- Title: dependencies Pages: 1 -->
<svg width="800pt" height="211pt"
 viewBox="0.00 0.00 800.00 211.00" xmlns="http://www.w3.org/2000/svg" xmlns:xlink="http://www.w3.org/1999/xlink">
<g id="graph0" class="graph" transform="scale(1 1) rotate(0) translate(4 207)">
<title>dependencies</title>
<polygon fill="white" stroke="transparent" points="-4,4 -4,-207 796,-207 796,4 -4,4"/>
<text text-anchor="start" x="375.01" y="-42.4" font-family="Times-12" font-weight="bold" font-size="14.00">Legend</text>
<polygon fill="#ffffb3" stroke="transparent" points="162,-10 162,-30 182,-30 182,-10 162,-10"/>
<text text-anchor="start" x="185.63" y="-15.4" font-family="Times-12" font-size="14.00"> &#160;Declarations</text>
<polygon fill="#8dd3c7" stroke="transparent" points="275,-10 275,-30 295,-30 295,-10 275,-10"/>
<text text-anchor="start" x="298.73" y="-15.4" font-family="Times-12" font-size="14.00"> &#160;Module</text>
<polygon fill="#80b1d3" stroke="transparent" points="361,-10 361,-30 381,-30 381,-10 361,-10"/>
<text text-anchor="start" x="384.78" y="-15.4" font-family="Times-12" font-size="14.00"> &#160;Bootstrap</text>
<polygon fill="#fdb462" stroke="transparent" points="458,-10 458,-30 478,-30 478,-10 458,-10"/>
<text text-anchor="start" x="481.67" y="-15.4" font-family="Times-12" font-size="14.00"> &#160;Providers</text>
<polygon fill="#fb8072" stroke="transparent" points="554,-10 554,-30 574,-30 574,-10 554,-10"/>
<text text-anchor="start" x="577.73" y="-15.4" font-family="Times-12" font-size="14.00"> &#160;Exports</text>
<g id="clust1" class="cluster">
<title>cluster_PostModule</title>
<polygon fill="none" stroke="black" stroke-dasharray="1,5" points="8,-70 8,-195 784,-195 784,-70 8,-70"/>
</g>
<g id="clust7" class="cluster">
<title>cluster_PostModule_imports</title>
<polygon fill="none" stroke="black" points="632,-78 632,-130 776,-130 776,-78 632,-78"/>
</g>
<g id="clust2" class="cluster">
<title>cluster_PostModule_declarations</title>
<polygon fill="none" stroke="black" points="16,-78 16,-130 624,-130 624,-78 16,-78"/>
</g>
<!-- PostAddComponent -->
<g id="node1" class="node">
<title>PostAddComponent</title>
<polygon fill="#ffffb3" stroke="black" points="615.56,-122 486.44,-122 486.44,-86 615.56,-86 615.56,-122"/>
<text text-anchor="middle" x="551" y="-99.8" font-family="Times,serif" font-size="14.00">PostAddComponent</text>
</g>
<!-- PostModule -->
<g id="node5" class="node">
<title>PostModule</title>
<polygon fill="#8dd3c7" stroke="black" points="438.67,-187 435.67,-191 414.67,-191 411.67,-187 355.33,-187 355.33,-151 438.67,-151 438.67,-187"/>
<text text-anchor="middle" x="397" y="-164.8" font-family="Times,serif" font-size="14.00">PostModule</text>
</g>
<!-- PostAddComponent&#45;&gt;PostModule -->
<g id="edge1" class="edge">
<title>PostAddComponent&#45;&gt;PostModule</title>
<path fill="none" stroke="black" d="M551,-122.02C551,-139.37 551,-163 551,-163 551,-163 448.67,-163 448.67,-163"/>
<polygon fill="black" stroke="black" points="448.67,-159.5 438.67,-163 448.67,-166.5 448.67,-159.5"/>
</g>
<!-- PostDeleteComponent -->
<g id="node2" class="node">
<title>PostDeleteComponent</title>
<polygon fill="#ffffb3" stroke="black" points="467.98,-122 326.02,-122 326.02,-86 467.98,-86 467.98,-122"/>
<text text-anchor="middle" x="397" y="-99.8" font-family="Times,serif" font-size="14.00">PostDeleteComponent</text>
</g>
<!-- PostDeleteComponent&#45;&gt;PostModule -->
<g id="edge2" class="edge">
<title>PostDeleteComponent&#45;&gt;PostModule</title>
<path fill="none" stroke="black" d="M397,-122.11C397,-122.11 397,-140.99 397,-140.99"/>
<polygon fill="black" stroke="black" points="393.5,-140.99 397,-150.99 400.5,-140.99 393.5,-140.99"/>
</g>
<!-- PostEditComponent -->
<g id="node3" class="node">
<title>PostEditComponent</title>
<polygon fill="#ffffb3" stroke="black" points="308.28,-122 179.72,-122 179.72,-86 308.28,-86 308.28,-122"/>
<text text-anchor="middle" x="244" y="-99.8" font-family="Times,serif" font-size="14.00">PostEditComponent</text>
</g>
<!-- PostEditComponent&#45;&gt;PostModule -->
<g id="edge3" class="edge">
<title>PostEditComponent&#45;&gt;PostModule</title>
<path fill="none" stroke="black" d="M244,-122.02C244,-139.37 244,-163 244,-163 244,-163 345.19,-163 345.19,-163"/>
<polygon fill="black" stroke="black" points="345.19,-166.5 355.19,-163 345.19,-159.5 345.19,-166.5"/>
</g>
<!-- PostIndexComponent -->
<g id="node4" class="node">
<title>PostIndexComponent</title>
<polygon fill="#ffffb3" stroke="black" points="161.83,-122 24.17,-122 24.17,-86 161.83,-86 161.83,-122"/>
<text text-anchor="middle" x="93" y="-99.8" font-family="Times,serif" font-size="14.00">PostIndexComponent</text>
</g>
<!-- PostIndexComponent&#45;&gt;PostModule -->
<g id="edge4" class="edge">
<title>PostIndexComponent&#45;&gt;PostModule</title>
<path fill="none" stroke="black" d="M93,-122.28C93,-143.32 93,-175 93,-175 93,-175 345.05,-175 345.05,-175"/>
<polygon fill="black" stroke="black" points="345.05,-178.5 355.05,-175 345.05,-171.5 345.05,-178.5"/>
</g>
<!-- PostRoutingModule -->
<g id="node6" class="node">
<title>PostRoutingModule</title>
<polygon fill="#8dd3c7" stroke="black" points="768.29,-122 765.29,-126 744.29,-126 741.29,-122 639.71,-122 639.71,-86 768.29,-86 768.29,-122"/>
<text text-anchor="middle" x="704" y="-99.8" font-family="Times,serif" font-size="14.00">PostRoutingModule</text>
</g>
<!-- PostRoutingModule&#45;&gt;PostModule -->
<g id="edge5" class="edge">
<title>PostRoutingModule&#45;&gt;PostModule</title>
<path fill="none" stroke="black" d="M704,-122.28C704,-143.32 704,-175 704,-175 704,-175 448.72,-175 448.72,-175"/>
<polygon fill="black" stroke="black" points="448.72,-171.5 438.72,-175 448.72,-178.5 448.72,-171.5"/>
</g>
</g>
</svg>
